<?xml version="1.0" encoding="UTF-8"?>
<svg id="Camada_1" data-name="Camada 1" xmlns="http://www.w3.org/2000/svg" viewBox="0 0 616.53 662.36">
  <defs>
    <style>
      .cls-1 {
        fill: #52a9ff;
      }
    </style>
  </defs>
  <path class="cls-1" d="M477.16,456.14c2.25,6.79,3.91,10.34,4.59,14.08,3.95,21.89,7.77,41.54,27.41,58.51,19.85,17.15,10.84,51.37-11.74,66.39-21.62,14.39-52.03,7.11-65.51-15.67-13.62-23.04-5.32-54.32,19.51-65.31,13.22-5.85,13.2-12.82,10.97-24.59-4.78-25.19-16.22-44.81-39.2-57.54-10.25-5.68-14.59-5.68-18.77,7.13-17.47,53.54-36.32,106.64-57.3,158.94-6.45,16.07-13.92,31.75-21.6,47.28-4.03,8.15-8.71,16.38-20.18,15.92-11.33-.46-15.42-8.75-19.18-17.19-20.16-45.36-35.79-92.49-53.77-138.7-8.9-22.88-17.7-45.82-25.66-69.03-3.34-9.74-7.4-10.33-15.41-5.35-35.17,21.86-41.19,46.93-41.47,81.83-.04,5.64,2.92,7,7.66,8.37,35.71,10.3,49.33,37.36,53.21,71.42,1.64,14.36,3.57,28.68.62,43.23-3.47,17.13-31.35,32.07-46.74,24.35-4.59-2.31-7.24-6.57-6.96-11.8.26-4.81,3.44-7.28,7.94-9.14,7.41-3.07,19.62,1.4,22.09-7.07,3.11-10.69,1.64-22.91,1.08-34.42-1.54-31.56-18.92-53.68-42.78-55.33-19.69-1.36-34.75,7.28-42.9,25.49-9.13,20.4-8.74,42.21-8.37,63.94.1,5.66,3.51,7.44,8.52,7.45,4.83,0,9.67-.13,14.49.1,4.91.23,8.21,2.69,8.74,7.85.49,4.72-1.04,8.31-5.59,10.67-24.04,12.45-48.85-2.61-48.29-29.52.44-21.16-.73-42.46,6.63-62.97,7.06-19.68,18.86-34.94,39.19-41.55,8.32-2.71,10-7.38,9.56-14.99-.94-16.47,1.19-32.63,7.47-50.46-31.99,9.88-61.22,20.91-85.11,42.67-10.34,9.42-16.06,22.03-18.46,35.39-5.2,28.88-10.71,57.76-9.79,87.45.3,9.66,2.44,14.31,12.88,13.7,8.03-.47,16.28.72,16.25,11.66-.03,12.03-8.98,11.78-17.47,11.76-.48,0-.97,0-1.45,0-33.16.29-32.53.18-32.18-32.51.34-31.43,2.06-62.49,8.68-93.39,6.48-30.29,23.07-52.5,48.72-68.69,24.71-15.6,52.06-24.91,79.95-32.71,10.31-2.89,19.81-6.22,28.08-13.68,6.34-5.72,14.21-10.01,21.93-13.87,24.83-12.43,30.01-29.85,15.44-53.73-2.01-3.29-4.19-6.52-5.88-9.97-9.36-19.05-18.45-36.9-36.27-51.46-25.12-20.52-28.22-60.14-12.39-88.76,4.67-8.45,2.57-16.87,1.64-25.36-3.4-31.01-3.98-61.97,9.27-90.97C182.35,35.3,224.88,10.18,277.79,2.12c37.99-5.79,74.94.1,108.87,19.79,11,6.38,20.94,13.83,27.47,25.05,1.96,3.36,4.37,5.76,8.04,7.77,29.59,16.19,41.45,43.19,43.51,75.16,1.05,16.31,1.22,32.75-2.41,49.02-2.2,9.9-.39,18.85,5.16,28.47,16.3,28.29,4.68,75.44-23.38,96.5-8.94,6.71-14.5,14.22-18.4,24.49-4.07,10.73-9.75,21.04-16.05,30.67-4.93,7.52-5.74,14.01-3.67,22.86,2.94,12.54,7.15,22.38,21.04,24.99.92.17,1.94.56,2.63,1.18,24.23,21.86,56.06,26.22,85.08,37.04,14.5,5.4,28.34,12.02,41.63,20.01,31.5,18.92,50.17,45.98,53.1,82.94,2.37,29.8,4.48,59.62,5.98,89.47.96,19.02-3.57,23.44-22.11,23.48-60.37.14-120.75.05-181.12.18-8.39.02-16.76-.97-17-11.09-.26-10.84,8.33-12.59,17.33-12.59,54.1.04,108.2-.36,162.28.27,13.4.16,17.36-3.88,16.71-17.33-1.28-26.51-2.56-52.97-6.44-79.25-2.39-16.18-8.29-30.71-20.91-41.76-24.85-21.75-54.75-33.02-88-43.31ZM452.92,238.74c.32-6.97-.37-13.64-3.88-19.7-1.92-3.32-3.67-6.76-8.87-5.12-10.37,3.28-16.31-2.79-21.18-10.72-13.61-22.19-27.85-44.03-40.56-66.72-5.24-9.36-9.32-10.82-18.77-5.87-38.21,20.04-79.33,26.06-121.97,22.96-29.92-2.18-31.24-1.42-38.25,27.61-1.02,4.21-2.58,8.45-2.65,12.7-.22,12.39-5.41,18.78-18.5,18.37-8.12-.26-13.13,4.28-15.59,12.37-5.73,18.88,6.92,54.76,25.58,58.96,9.63,2.17,13.45,9.8,16.15,18.57,9.98,32.39,28.6,58.83,56.2,78.56,25.22,18.03,52.19,24.94,81.25,9.31,32.86-17.67,55.68-44.14,67.19-79.81,2.58-8,4.99-15.27,13.33-19.44,21.33-10.68,28.91-29.7,30.5-52.01ZM437.2,189.28c5.58-23.84,9.85-45.51,5.24-67.34-4.82-22.81-13.87-43.37-39.79-50.25-2.77-.74-6.44-4.27-6.81-6.91-2.2-15.77-15.07-20.85-26.62-25.89-31.5-13.77-64.41-19.86-98.62-12.08-46.55,10.59-92.43,41.37-99.2,99.29-2.33,19.93,1.98,38.89,2.75,58.45,2.58-6.71,4.11-13.63,6.26-20.36,9.78-30.5,20.94-38.83,52.16-34.36,46.52,6.66,88.72-5.24,129.19-26.5,17.28-9.08,20.49-8.29,29.84,9.63,13.34,25.56,28.56,49.95,45.59,76.29ZM240.65,464.71c22.23,57.61,43.24,112.04,64.31,166.63,1.98-1,2.56-1.09,2.72-1.39,24.81-49,40.23-101.7,60.11-152.64.61-1.57.64-4.08-.23-5.38-1.93-2.91-4.31-.47-6.19.52-40.38,21.07-79.64,17.47-120.72-7.72ZM232.44,388.22c-4.14,15.08-13.6,27.66-1.05,41.86,36.62,41.42,110.04,42.61,147.84,2.21,8.58-9.17,12.15-19.41,9.48-31.72-1.84-8.48-3.66-13.24-13.23-4.9-21.57,18.8-46.97,27.77-76,25.1-25.66-2.36-46.19-15.33-67.03-32.53ZM496.26,556.09c.11-13.79-10.93-25.32-24.13-25.18-12.7.14-23.6,11.06-23.92,23.96-.35,14.07,9.84,24.39,24.25,24.54,13.63.15,23.69-9.7,23.8-23.32Z"/>
</svg>