<?xml version="1.0" encoding="UTF-8"?>
<svg id="Camada_1" data-name="Camada 1" xmlns="http://www.w3.org/2000/svg" viewBox="0 0 609.61 662.36">
  <defs>
    <style>
      .cls-1 {
        fill: #ffb6f1;
      }
    </style>
  </defs>
  <path class="cls-1" d="M468.83,444.7c33.44,10.79,61.22,23.71,85.77,43.29,27.2,21.7,43.13,49.68,47.9,83.82,3.09,22.1,5.42,44.35,6.86,66.61,1.35,20.89-2.1,23.85-23.28,23.86-167.41.04-334.83.03-502.24.03-21.88,0-43.76-.18-65.64.05-12.79.14-19.15-5.48-18.08-18.47,2.6-31.35,5.01-62.69,14.18-93.08,12.01-39.81,41.62-63.96,74.88-84.82,15.34-9.62,32.15-16.5,51.74-24.65-23.47-4.18-43.09-10.11-58.85-24.52-14.01-12.8-14.96-19.29-5.58-35.61,19.81-34.46,25.06-72.5,27.47-111.27,3.09-49.6,4.48-99.36,21.29-147.08C150.94,49.9,210.78,6.25,287.69.48c47.02-3.53,84.21,12.74,123.22,37.53,64.55,41.04,80.86,102.62,88.96,170.98,4.89,41.29-.61,83.46,11.43,124.15,5.21,17.61,10.51,35.07,20.47,50.59,6.89,10.73,5.25,19.77-2.7,28.99-14.9,17.29-34.06,26.71-60.24,31.98ZM146.69,236.09c0-5.09-.04-10.18,0-15.27.22-22.96,5.17-27.72,27.97-27.09,13.19.36,26.41,1.44,39.44-1.88,52.19-13.29,96.02-40.58,132.68-79.64,13.42-14.3,22.21-13.28,30.14,5.1,7.7,17.85,17.65,34.35,28.75,50.16,8.34,11.88,18.96,21.22,33.45,25.15,22.54,6.13,27.21,11.29,26.65,34.9-1.44,60.53-17.81,115.14-64.58,157.24-8.5,7.65-6.4,28.53,3.28,31.25,32.4,9.12,64.01,9.43,93.76-9.74,9.25-5.96,11.12-11.14,6.39-21.97-15.33-35.07-24.43-71.6-25.69-110.41-.94-28.86-.3-57.94-5.27-86.66-6.4-36.93-16.54-72-41.38-101.6-11.3-13.46-28.72-17.45-40.66-28.97-61.96-59.77-181.2-31.58-222.47,31.77-28.97,44.47-36.15,94.11-38.99,145.15-2.85,51.24-4,102.82-27.85,149.98-5.51,10.9-3.35,16.12,7.16,20.93,29.57,13.54,59.77,18.7,91.65,9.57,5.44-1.56,12.01.8,13.67-8.38,1.43-7.89,2.93-13.92-4.37-20.35-44.86-39.53-62.82-90.82-63.74-149.26ZM441.87,236.43c2.78-10.69-2.78-21.1-20.69-25.75-12.43-3.23-21.84-12.58-30.55-21.99-11.09-11.98-20.78-25.04-28.86-39.19-3.69-6.46-6.22-7.43-12.22-1.88-28.34,26.21-61.86,44.09-97.55,57.94-23.29,9.04-47.36,15.47-72.71,12.18-8.29-1.08-9.56,2.46-9.54,9.16.18,69.32,24.69,125.73,86.28,162.3,27.22,16.16,55.98,18.04,84.6,5,64.68-29.47,95.13-82.18,101.24-157.77ZM477.76,474.11c.23,4.23.28,8.26.68,12.25,1.55,15.37,3.44,28.46,19.68,38.71,22.3,14.06,23.3,45.51,6.08,64.35-18.14,19.83-47.95,20.64-66.52,1.81-18.75-19.02-19.59-50.83,3.05-65.51,18.36-11.91,16.02-25.65,14.01-41.11-2.16-16.58-10.54-28.93-27.04-35.76-11.58-4.8-16.38-2.73-20.99,9.4-18.25,48.14-47.65,88.25-89.4,119.08-10.16,7.5-18.34,8.03-28.53-.03-27.92-22.09-51.38-47.77-67.28-79.81-6.99-14.08-13.52-28.43-19.33-43.02-3.53-8.87-7.79-10.16-16.21-6.23-15.64,7.31-26.93,17.09-29.84,35.48-1.93,12.2-1.25,24.33-2.26,36.45-.67,8.1,1.87,12.67,10.15,15.93,21.29,8.39,33.92,24.59,39.68,46.88,3.52,13.62,3.11,27.29,2.77,40.93-.27,10.9,4.05,14.18,14.36,13.96,22.39-.48,44.79-.12,67.19-.12,92.64,0,185.29-.2,277.93.19,13.17.06,20.56-2.42,17.8-17.66-1.8-9.95-2.59-20.14-3.14-30.26-3.16-57.7-36.69-92.61-102.86-115.91ZM388.36,443.24c.73-3.02-.5-5.02-3.21-6.05-8.89-3.38-9.28-10.99-9.74-18.79-.59-9.83-4.41-11.31-13.57-6.8-38.12,18.77-76.68,20.55-115.29.85-2.41-1.23-7.13-4.29-7.86-1.06-2.63,11.57-3.87,23.4-16.39,29.41-.25.12,1.04,3.65,1.76,5.53,15.15,39.94,36.85,75.42,69.49,103.72,7.02,6.08,11.88,6.01,19.23.06,34.06-27.57,56.41-63.35,74.07-102.62.61-1.37,1.02-2.83,1.52-4.25ZM133.68,473.26c-1.4-.35-2.55-1.06-3.21-.75-47.61,22.45-90.67,49.06-98.54,107.86-1.41,10.53-3.45,20.98-5.05,31.5-3.75,24.64-2.64,25.91,22.19,25.91,30.04,0,29.76,0,30.54-30.85.56-22.24,2.48-48.14,22.74-58.4,26.74-13.55,28.41-33.84,28.82-57.67.1-5.89,1.64-11.75,2.52-17.61ZM183.36,615.51c1.38-9.16-1.12-19.64-3.56-29.93-4.35-18.35-20.46-30.29-38.92-29.88-16.93.38-31.54,12.49-34.76,30.52-2.31,12.91-3.87,25.99-3.75,39.29.08,9.39,3.69,12.56,12.62,12.35,15.72-.35,31.45-.12,47.18-.09q21.2.04,21.2-22.26ZM470.09,581.41c11.77-.07,22.1-10.9,21.7-22.75-.38-11.34-10.22-21.09-21.49-21.31-12.08-.24-22.52,9.87-22.54,21.81-.02,11.86,10.49,22.33,22.33,22.26Z"/>
</svg>