<?xml version="1.0" encoding="UTF-8"?>
<svg id="Objects" xmlns="http://www.w3.org/2000/svg" viewBox="0 0 898.74 1060.46">
  <defs>
    <style>
      .cls-1 {
        fill: #ffb3f1;
      }
    </style>
  </defs>
  <path class="cls-1" d="M848.2,766.78l-79.7-35.17h0c-19.15-49.36-36.13-138.64-36.13-294.55,0-91.92,18.27-131.81,6.24-210.61-10.32-67.58-48.57-131.01-101.41-174.99-51.4-42.76-123.8-63.4-187.84-44.3h0c-64.03-19.1-136.43,1.54-187.83,44.3-52.84,43.98-91.09,107.41-101.41,174.99-12.04,78.8,6.24,118.69,6.24,210.61,0,155.91-16.98,245.19-36.13,294.55h.01l-79.69,35.17c-30.72,13.55-50.55,43.96-50.55,77.55v181.16c0,19.31,15.66,34.97,34.98,34.97h828.8c19.31,0,34.97-15.65,34.97-34.97v-181.16c0-33.59-19.83-64-50.54-77.55ZM449.43,875.28l-114.82-158.96v-88.46c36.12,21.45,75.47,33.52,111.94,33.52,38.72,0,80.23-13.07,117.59-36.18v93.55l-114.71,156.53ZM666.32,422.51c0,28.99-6.68,57.64-19.86,85.14-12.34,25.76-29.74,49.34-51.71,70.08-42.83,40.43-98.23,64.56-148.21,64.56s-103.89-24.15-147.11-64.59c-21.94-20.53-40.06-44.77-52.42-70.11-13.44-27.55-20.25-56.18-20.25-85.14,0-.26-.15-24.07.16-53.62,57.49-9.01,113.06-30.11,161.19-61.29,48.9-31.67,87.86-72.28,113-117.72,53.84.48,89.55,7.83,115.29,23.66,32.79,20.16,48.73,55.37,48.73,107.63,0,.05,0,.1,0,.15l1.19,76.83v24.41ZM315.53,658.39v61.01c0,2.01.63,3.96,1.81,5.59l99,137.06-144.15-80.75c-1.44-.81-3.05-1.22-4.66-1.22-1.18,0-2.36.22-3.48.66l-89.47,35.08c16.85-72.68,60.43-113.62,95.3-135.52,18.38-11.54,35.1-18.31,45.66-21.92ZM483.03,861.7l98.34-134.2c1.2-1.64,1.84-3.61,1.84-5.64v-63.47c10.56,3.6,27.28,10.38,45.66,21.92,34.87,21.89,78.45,62.84,95.3,135.52l-89.47-35.08c-2.66-1.04-5.65-.84-8.15.56l-143.53,80.4Z"/>
</svg>