<?xml version="1.0" encoding="UTF-8"?>
<svg id="Objects" xmlns="http://www.w3.org/2000/svg" viewBox="0 0 936.9 1139.46">
  <defs>
    <style>
      .cls-1 {
        fill: #5ad0ff;
      }
    </style>
  </defs>
  <path class="cls-1" d="M880.67,840.59l-207.71-91.66-61.51-27.15-2.87-45.61c11.23-7.92,22.02-16.7,32.17-26.29,25.37-23.95,45.49-51.23,59.8-81.1,15.44-32.23,23.27-65.87,23.27-99.99v-5.71c4.06,1.62,8.46,2.49,13,2.49,19.33,0,35.06-15.73,35.06-35.07,0-10.03,2.16-18.2,4.45-26.85,2.18-8.22,4.42-16.72,4.42-26.34,0-13.03-6.08-24.66-15.55-32.23,35.35-200.7-64.52-320.45-172.59-334.09C398.47-13.47,258.36.06,258.36,80.24c0,25.21,16.95,40.63,22.35,44.89-22.05-5.39-117.88-23.03-117.88,78.17,0,41.09,9.06,98.09,18.36,138.5-12.14,7.19-20.31,20.41-20.31,35.52,0,9.61,2.25,18.11,4.42,26.34,2.29,8.65,4.45,16.82,4.45,26.85,0,19.34,15.73,35.07,35.06,35.07,2.49,0,4.95-.26,7.35-.78v4c0,34.07,7.99,67.73,23.75,100.05,14.52,29.77,34.9,57.05,60.56,81.07,10.1,9.45,20.78,18.12,31.87,25.96l-2.9,45.9-61.51,27.15-207.72,91.66c-34.16,15.08-56.23,48.94-56.23,86.28v168.08c0,24.54,19.97,44.51,44.51,44.51h847.89c24.54,0,44.51-19.97,44.51-44.51v-168.08c0-37.34-22.07-71.21-56.23-86.28ZM253.07,560.48c-14.48-29.69-21.82-60.54-21.82-91.68v-19.16c0-3.75-2.2-7.16-5.62-8.7-1.26-.57-2.59-.84-3.91-.84-2.29,0-4.55.82-6.33,2.4-2.91,2.58-6.66,3.99-10.56,3.99-8.81,0-15.98-7.17-15.98-15.99,0-12.51-2.7-22.72-5.08-31.73-2.03-7.69-3.79-14.33-3.79-21.46,0-12.22,9.94-22.16,22.16-22.16,3.77,0,7.33.91,10.61,2.7,3.29,1.8,7.33,1.51,10.33-.75,3-2.26,4.39-6.06,3.56-9.72-6.47-28.63-.47-59.98,16.05-83.86,18.07-26.14,49.01-43.53,80.74-45.37,31.22-1.83,62.99,10.29,93.72,22,38.7,14.75,78.71,30.01,120.03,19.23,11.03-2.88,21.32-7.48,31.27-11.93,12.87-5.75,25.02-11.19,37.83-12.65,20.11-2.3,36.98,6.13,47.59,13.6,14.37,10.12,26.48,24.83,34.11,41.43,8.68,18.87,13.61,41.34,15.51,70.7.26,4.09,3.11,7.55,7.08,8.61,3.96,1.05,8.15-.55,10.41-3.97,4.13-6.26,11.06-10.01,18.54-10.01,12.22,0,22.16,9.94,22.16,22.16,0,7.13-1.76,13.77-3.79,21.46-2.38,9.01-5.08,19.22-5.08,31.73,0,8.82-7.17,15.99-15.98,15.99-5.92,0-11.33-3.25-14.12-8.48-2.06-3.86-6.48-5.83-10.73-4.77-4.25,1.06-7.23,4.88-7.23,9.26v26.3c0,31.24-7.2,62.11-21.39,91.74-13.29,27.74-32.03,53.14-55.69,75.47-46.12,43.54-105.81,69.53-159.66,69.53s-111.93-26-158.47-69.56c-23.62-22.11-43.14-48.21-56.45-75.5ZM563.48,759.74c-27.05,23.5-59.02,35.42-95.02,35.42-37.88,0-70.4-11.87-96.66-35.27-15.93-14.2-24.66-28.6-27.5-33.77l2.41-38.23c39.08,23.5,81.77,36.74,121.28,36.74s83.18-13.14,122.22-36.49l2.37,37.73c-3.27,5.36-12.82,19.71-29.11,33.87Z"/>
</svg>