<?xml version="1.0" encoding="UTF-8"?>
<svg id="Camada_1" data-name="Camada 1" xmlns="http://www.w3.org/2000/svg" viewBox="0 0 27.79 27.79">
  <defs>
    <style>
      .cls-1 {
        fill: #0b68f7;
      }

      .cls-2 {
        fill: none;
      }
    </style>
  </defs>
  <rect class="cls-2" width="27.79" height="27.79" rx="6" ry="6"/>
  <g>
    <path class="cls-1" d="M20.46,14.82l-2.22,5.91c-.05.14-.14.27-.25.37l-.12.09c-.13.08-.27.14-.42.15h-.15c-.15,0-.3-.04-.43-.12l-.13-.09c-.12-.09-.21-.22-.28-.35l-.05-.14-2.8-9.94-1.07,3.43c-.05.15-.13.28-.23.39l-.12.1c-.12.09-.27.15-.42.18h-.15s-11.62.01-11.62.01v6.97c0,3.31,2.69,6,6,6h15.79c3.31,0,6-2.69,6-6v-6.97h-7.33Z"/>
    <path class="cls-1" d="M10.91,12.89l1.83-5.86.06-.14c.07-.14.17-.26.3-.35l.13-.08c.14-.07.29-.1.44-.1h0s0,0,0,0h0s0,0,0,0h0c.21,0,.41.07.58.2l.12.1c.11.11.18.25.23.4l2.88,10.24,1.42-3.77.06-.13c.07-.13.17-.24.29-.32l.13-.07c.13-.06.28-.1.42-.1h8v-6.89c0-3.31-2.69-6-6-6H6C2.69,0,0,2.69,0,6v6.89h10.91Z"/>
  </g>
</svg>